<?xml version="1.0" standalone="no"?>
<!DOCTYPE svg PUBLIC "-//W3C//DTD SVG 20010904//EN"
 "http://www.w3.org/TR/2001/REC-SVG-20010904/DTD/svg10.dtd">
<svg version="1.0" xmlns="http://www.w3.org/2000/svg"
 width="320.000000pt" height="168.000000pt" viewBox="0 0 320.000000 168.000000"
 preserveAspectRatio="xMidYMid meet">
<metadata>
Created by potrace 1.13, written by Peter Selinger 2001-2015
</metadata>
<g transform="translate(0.000000,168.000000) scale(0.100000,-0.100000)"
fill="#00FFFF" stroke="none">
<path d="M2066 1629 c-283 -30 -634 -187 -849 -380 l-58 -52 52 -18 c58 -21
50 -23 129 44 130 112 358 238 537 296 169 55 241 66 437 66 l179 0 -58 17
c-59 18 -206 39 -260 37 -16 -1 -66 -5 -109 -10z"/>
<path d="M2010 1514 c-189 -56 -379 -149 -522 -256 -90 -67 -168 -136 -168
-148 1 -3 9 -15 20 -28 l19 -23 88 88 c156 155 367 285 585 358 118 40 104 46
-22 9z"/>
<path d="M2986 1429 c-144 -74 -152 -77 -202 -72 -40 4 -60 2 -79 -11 -14 -9
-23 -21 -20 -26 3 -5 -4 -14 -15 -20 -11 -6 -20 -18 -20 -28 -1 -10 -6 -5 -14
13 -7 17 -11 36 -8 44 4 10 1 11 -15 3 -11 -6 -25 -18 -33 -26 -7 -9 -18 -16
-24 -16 -11 0 9 18 68 62 16 12 26 17 22 10 -4 -7 -3 -12 2 -12 14 0 22 38 15
72 -6 28 -54 78 -76 78 -7 0 -32 -11 -57 -25 l-45 -25 28 25 c15 14 23 25 17
25 -17 0 -60 -47 -60 -65 0 -8 -12 -21 -27 -27 l-28 -11 25 -7 c14 -3 29 -2
33 4 5 7 7 2 4 -11 -5 -20 -1 -23 31 -24 33 -2 34 -2 8 -6 -16 -3 -35 -11 -43
-19 -12 -12 -8 -14 34 -16 43 -1 44 -2 11 -5 -21 -2 -38 -8 -38 -14 0 -5 -19
-9 -43 -9 -24 0 -48 -5 -55 -12 -7 -7 -12 -37 -11 -68 0 -36 3 -48 8 -36 6 15
9 17 16 7 10 -17 125 -7 166 15 34 17 40 10 7 -8 -23 -12 -134 -38 -175 -41
-16 -2 -21 -7 -18 -18 3 -9 6 -79 8 -155 2 -136 1 -140 -27 -197 -22 -44 -30
-78 -34 -133 -3 -45 -10 -78 -18 -85 -16 -13 -18 -45 -4 -54 6 -3 10 -16 10
-29 0 -12 6 -30 13 -40 12 -17 14 -17 20 -3 5 14 75 57 93 57 4 0 -16 -17 -44
-38 -28 -20 -47 -38 -42 -40 5 -2 24 8 42 21 65 48 80 48 29 0 -28 -27 -49
-52 -45 -55 3 -4 20 9 36 28 17 19 40 40 52 46 12 7 4 -7 -21 -36 l-41 -47 41
-41 42 -41 -43 34 c-23 19 -62 51 -85 71 -42 36 -44 37 -81 24 l-37 -13 23
-15 c13 -9 33 -26 46 -38 23 -21 24 -22 44 -3 21 18 21 18 9 -4 -6 -13 -17
-23 -24 -23 -7 0 -1 -9 13 -20 23 -18 26 -18 45 -2 14 12 16 13 8 2 -10 -13 2
-23 75 -65 48 -27 94 -55 104 -62 9 -8 39 -15 67 -17 49 -2 51 -1 51 24 1 22
2 23 11 7 20 -34 4 -49 -46 -41 l-46 6 12 -24 c9 -20 8 -32 -6 -58 -9 -17 -14
-34 -11 -37 14 -14 66 14 109 59 27 27 43 40 37 29 -6 -12 -26 -37 -46 -56
-19 -19 -29 -35 -21 -35 23 0 89 88 87 117 0 5 8 23 17 41 17 32 17 34 -1 48
-11 8 -32 14 -47 14 -38 0 -85 43 -116 104 -14 28 -44 70 -66 94 l-41 42 57
114 c49 95 59 124 61 172 2 33 11 88 21 124 9 36 18 81 18 100 l0 35 10 -43
c7 -31 16 -44 33 -48 30 -8 41 0 59 43 11 27 12 40 3 56 -11 21 -11 21 -20 -3
-11 -29 -25 -40 -53 -40 -17 0 -17 2 5 13 17 8 26 22 28 42 3 24 1 28 -9 18
-16 -15 -45 -17 -54 -3 -3 6 1 7 10 4 23 -9 46 14 39 40 -3 14 1 27 10 35 8 7
22 35 31 62 9 27 21 49 26 49 6 0 7 -4 4 -10 -3 -5 1 -10 9 -10 10 0 16 9 16
25 0 24 9 30 39 26 8 -2 10 2 5 10 -5 9 -1 11 14 7 12 -4 20 -3 17 1 -2 4 32
25 76 46 44 21 105 53 137 73 31 19 63 35 70 35 22 1 13 13 -20 28 -33 15 -34
15 -182 -62z"/>
<path d="M2919 1287 c-26 -12 -26 -13 -12 -52 19 -52 13 -224 -10 -277 -30
-71 -6 -38 37 51 24 49 51 118 61 155 l18 66 -24 35 c-26 38 -31 39 -70 22z"/>
<path d="M97 1053 c-4 -3 -7 -25 -7 -47 l0 -41 67 3 66 4 -7 -166 -6 -166 65
0 65 0 0 68 c0 37 3 111 7 164 l6 97 66 3 66 3 3 43 3 42 -194 0 c-106 0 -197
-3 -200 -7z"/>
<path d="M533 1052 c-7 -4 -15 -27 -19 -51 -6 -39 -5 -43 12 -38 91 26 154 14
154 -28 0 -20 -24 -50 -100 -125 -90 -88 -100 -102 -100 -134 l0 -36 164 0
164 0 6 31 c11 55 12 54 -76 51 l-82 -4 73 78 c82 88 103 123 103 171 0 69
-50 93 -189 93 -54 0 -103 -4 -110 -8z"/>
<path d="M1679 1053 l-66 -4 -7 -176 c-4 -97 -10 -189 -13 -205 l-5 -28 61 0
61 0 0 73 c0 41 3 115 6 165 l7 92 41 0 c45 0 66 -13 66 -41 0 -24 -50 -61
-73 -55 -14 3 -17 0 -12 -15 3 -10 8 -28 11 -39 4 -16 14 -20 47 -20 109 0
174 95 133 195 -8 18 -24 39 -36 45 -24 13 -125 19 -221 13z"/>
<path d="M1123 1035 c-75 -21 -128 -50 -173 -96 -42 -44 -90 -131 -90 -164 0
-23 47 -102 73 -124 15 -12 17 -10 17 15 0 38 23 121 44 162 47 90 138 155
247 174 62 11 72 20 40 38 -27 14 -95 12 -158 -5z"/>
<path d="M1416 893 c-4 -87 -9 -179 -12 -205 l-6 -48 65 0 65 0 6 148 c4 81 9
173 12 205 l6 57 -65 0 -65 0 -6 -157z"/>
<path d="M1987 907 c-4 -79 -10 -171 -13 -205 l-7 -62 162 0 c130 0 161 3 161
14 0 7 3 26 6 42 l6 29 -99 0 -98 0 2 50 c1 28 5 101 9 163 l6 112 -64 0 -65
0 -6 -143z"/>
<path d="M1304 866 c-49 -22 -110 -82 -133 -131 -27 -58 -40 -155 -20 -155 32
0 117 50 151 88 57 64 89 203 48 209 -8 1 -29 -4 -46 -11z"/>
<path d="M890 573 c0 -35 58 -139 101 -179 24 -23 64 -54 89 -69 l45 -28 -43
47 c-46 49 -87 128 -98 184 -6 33 -14 38 -71 56 -18 6 -23 3 -23 -11z"/>
<path d="M1056 513 c11 -69 52 -143 108 -197 52 -51 58 -54 130 -65 86 -12
184 -14 265 -4 l55 6 -77 18 c-80 19 -149 50 -206 93 -44 33 -108 118 -116
156 l-7 30 -79 0 -80 0 7 -37z"/>
</g>
</svg>
